<svg xmlns="http://www.w3.org/2000/svg" width="215" height="143" viewBox="0 0 215 143">
  <g id="consultants" transform="translate(-1205 -707)">
    <rect id="Rectangle_23" data-name="Rectangle 23" width="215" height="143" transform="translate(1205 707)" fill="#bad2fb"/>
    <g id="Symbols" transform="translate(1322 761)">
      <g id="Head_Front_Rad" data-name="Head/Front/Rad" transform="translate(-37 -15)">
        <g id="Head" transform="translate(54 31)">
          <path id="Path_6" data-name="Path 6" d="M8.262,34.49C3.654,29.081.536,22.453,1.057,15.025c1.5-21.4,31.292-16.693,37.087-5.892s5.106,38.2-2.383,40.13c-2.987.77-9.349-1.116-15.825-5.019L24,73H0Z" fill="#be9672" fill-rule="evenodd"/>
        </g>
        <path id="hair" d="M95.407-38.9A7.5,7.5,0,0,1,96.97-36a29.388,29.388,0,0,1,1,3.3c.5,2.249.509,4.836-1.1,6.582a7.548,7.548,0,0,1-5,2.165,9.187,9.187,0,0,1-3.545-.449c-1.129-.371-2.1-1.111-3.2-1.57a14.306,14.306,0,0,1-1.687,7.03,7.008,7.008,0,0,1-5.218,3.4,10.347,10.347,0,0,1-6.357-1.28c-.494-.267-.984-.547-1.453-.865a4.071,4.071,0,0,0-1.261-.693c-.513-.121-.768.176-1.1.55a8.368,8.368,0,0,1-1.3,1.168,7.647,7.647,0,0,1-7.155,1.23,6.649,6.649,0,0,1-2.917-2.109c-.666-.873-1.14-2.258-2.059-2.866-.39-.258-.665.084-1.02.337-.533.38-1.042.8-1.581,1.169a7.242,7.242,0,0,1-2.457,1.111c-1.286.3-3.064.228-3.432-1.457a6.954,6.954,0,0,1,.012-1.947c.061-.876.125-1.751.2-2.625a18.954,18.954,0,0,1,.256-1.957,2.863,2.863,0,0,0,.127-1.343c-.186-.435-1.046-.188-1.413-.2A5.582,5.582,0,0,1,43.2-27.78a2.286,2.286,0,0,1-1.285-1.189,2.136,2.136,0,0,1-.036-1.118,3.335,3.335,0,0,0-.068-1.147c-.974.48-4.349,1.545-4.774-.2a2.731,2.731,0,0,1,.426-1.728,14.978,14.978,0,0,1,1.573-2.395,21.412,21.412,0,0,1,4.19-4.065,2.746,2.746,0,0,1-.716-4.6,3.4,3.4,0,0,1,2.5-.724,5.525,5.525,0,0,0,1.033.082,2.47,2.47,0,0,1,.468-.158,13.928,13.928,0,0,1,3.832.486,12.636,12.636,0,0,1,5.844,3.056,1.8,1.8,0,0,0,1.352.621c.5-.005,1-.143,1.5-.156a10.791,10.791,0,0,1,3.761,1.048,14.189,14.189,0,0,1,1.232-5c.556-1.223,1.717-1.4,2.858-1.508,3.649-.343,7.31.04,10.963.035-3.536-.8-7.191-1.129-10.7-2.069-1.584-.425-.375-1.493.3-2.233a12.87,12.87,0,0,0,2.52-4.32c1.73,2.255,4.788,3.741,7.5,3.048,2.993-.765,5.1-4.813,3.187-7.723-1.111-1.689-3.118-2.341-4.788-3.067,1.3-1.354,1.618-3.354,2.4-5.039a3.606,3.606,0,0,1,1.794-2.06,2.1,2.1,0,0,0,.947-.377c.313-.323.387-.684.786-.961a4.434,4.434,0,0,1,5.494.423,3.586,3.586,0,0,1-.122,4.7c1.7.708,4.791,1.618,4.116,4.263,3.679.244,12.611,6.211,7.674,10.571,2.71,1.531,5.2,5.274,3.459,8.574-1.34,2.541-4.457,3.676-7.015,3.811" transform="translate(140) rotate(180)" fill="#0e2958" fill-rule="evenodd"/>
      </g>
    </g>
    <path id="Polygon_1" data-name="Polygon 1" d="M39.236,1.282a3,3,0,0,1,3.527,0L80.237,28.512a3,3,0,0,1,1.09,3.354L67.013,75.927A3,3,0,0,1,64.16,78H17.84a3,3,0,0,1-2.853-2.073L.673,31.866a3,3,0,0,1,1.09-3.354Z" transform="translate(1230.5 730)" fill="#80a7ea"/>
  </g>
</svg>
