<svg xmlns="http://www.w3.org/2000/svg" width="215" height="143" viewBox="0 0 215 143">
  <g id="designers" transform="translate(-261 -707)">
    <rect id="Rectangle_15" data-name="Rectangle 15" width="215" height="143" transform="translate(261 707)" fill="#bad2fb"/>
    <rect id="Rectangle_16" data-name="Rectangle 16" width="85" height="85" rx="3" transform="translate(308 719)" fill="#80a7ea"/>
    <g id="Symbols" transform="translate(286 739)">
      <g id="Head_Front_Airy" data-name="Head/Front/Airy" transform="translate(69 7)">
        <g id="Head" transform="translate(54 31)">
          <path id="Path_1" data-name="Path 1" d="M8.262,34.49C3.654,29.081.536,22.453,1.057,15.025c1.5-21.4,31.292-16.693,37.087-5.892s5.106,38.2-2.383,40.13c-2.987.77-9.349-1.116-15.825-5.019L24,73H0Z" fill="#b28b67" fill-rule="evenodd"/>
        </g>
        <path id="hair" d="M78.464,27.685c-3.163-.519-11.68-.875-13.251-.875-1,0-2.091.229-2.686-.692-.487-.755-.308-2.031-.454-2.907-.169-1.017-.408-2.022-.651-3.023a30.741,30.741,0,0,0-3.192-8.109,24.924,24.924,0,0,0-11.814-10.7A37.937,37.937,0,0,0,28.48-1.084c-6.437.522-12.265,2.647-18.343,4.647A38.442,38.442,0,0,1-7.778,5.288c-6.1-.938-10.715-4.246-15.863-7.385-5.27-3.214-11.293-5.317-17.523-4.833C-46.98-6.48-52.341-4.078-57.15-.871c-4.5,3-8.212,6.612-10.308,11.695-2.255,5.467-2.253,11.468,1.455,16.3,5.375,7,15.352,8.814,23.654,8.634A45.193,45.193,0,0,0-28.3,33.183c6.046-2.126,11.27-5.731,16.926-8.655A44.044,44.044,0,0,1-3.1,21.217c2.791-.788,5.539-1.15,8.066.536A38.091,38.091,0,0,0,13.092,26.4a26.206,26.206,0,0,0,9.166,1.646C28.339,28,34.333,26.109,40.239,24.84c4.816-1.035,9.969-2.066,14.879-1.071,2.049.415,5.041,1.272,5.781,3.4C48.444,29.427,43.553,44.83,47.064,56.137c1.895,6.1,13.286,13.237,17.715,10.029,2.806-2.033,1.1-4.7,0-6.463C62.668,56.33,61.945,52,65.852,49.648c3.37-2.026,6.913,2.785,6.98,2.779.926-.073,8.929-4.6,14.443-11.2,5.439.322,6.265-3.264,4.966-6.2S82.834,28.4,78.464,27.685Z" fill="#0e2958" fill-rule="evenodd"/>
      </g>
    </g>
  </g>
</svg>
