<svg xmlns="http://www.w3.org/2000/svg" xmlns:xlink="http://www.w3.org/1999/xlink" width="18.082" height="46.273" viewBox="0 0 18.082 46.273">
  <defs>
    <linearGradient id="linear-gradient" x1="0.426" y1="0.203" x2="0.5" y2="1" gradientUnits="objectBoundingBox">
      <stop offset="0" stop-color="#faa848"/>
      <stop offset="1" stop-color="#d94e47"/>
    </linearGradient>
  </defs>
  <g id="Logo" transform="translate(-14000.504 23186.107)">
    <g id="Group_241" data-name="Group 241" transform="translate(14000.504 -23186.107)">
      <path id="Path_204" data-name="Path 204" d="M6849.417-18049.375a8.663,8.663,0,0,0,7.941-8.4v-20.953a1.26,1.26,0,0,0-1.343-1.287,1.073,1.073,0,0,0-1.154,1.287v17.758a1.317,1.317,0,0,1-1.405,1.205,1.1,1.1,0,0,1-1.217-1.205v-8.352a1.142,1.142,0,0,0-1.208-1.283,1.271,1.271,0,0,0-1.331,1.283v4.5a1.261,1.261,0,0,1-1.369,1.053c-1.25,0-1.158-1.053-1.158-1.053v-2.422s.034-1.094-1.342-1.094a1.4,1.4,0,0,0-1.535,1.094v4.459a1.068,1.068,0,0,1-1.111,1.111,1.152,1.152,0,0,1-1.184-1.111v-8.209s.232-2.168-1.36-2.168-1.352,2.168-1.352,2.168v12.6s.033,7.426,7.538,8.912a7.348,7.348,0,0,0,1.49.166C6848.631-18049.312,6849.417-18049.375,6849.417-18049.375Z" transform="translate(-6839.276 18080.018)" fill="url(#linear-gradient)"/>
      <path id="Union_14" data-name="Union 14" d="M14.1,12.449,8.987,9.3,3.94,12.41a2.448,2.448,0,0,1-1.378.492h-.1A2.461,2.461,0,0,1,0,10.53q0-.043,0-.087s0,0,0,0H0v0H0v0H0v0H0v0H0v0H0v0H0v0H0v0H0v0H0v0H0v0H0v0H0v0H0v0H0v0H0v0H0v0H0v0H0v-.036H0v0H0v0H0v0H0v0H0v0H0V10.3H0v0H0v-.008H0A2.462,2.462,0,0,1,1.372,8.236l0-.006,2.971-1.8L.742,4.214A2.352,2.352,0,0,1,.462,1.1C1.281.268,1.7.043,2.255.04A2.653,2.653,0,0,1,3.656.4L8.987,3.621l5.4-3.264A2.653,2.653,0,0,1,15.784,0c.556,0,.974.229,1.793,1.057A2.352,2.352,0,0,1,17.3,4.174L13.634,6.433,16.67,8.269l0,.006a2.462,2.462,0,0,1,1.366,2.036h0v.019h0v0h0v.005h0v0h0v0h0v0h0v0h0v0h0v0h0v0h0v0h0v0h0v.017h0v0h0v0h0v0h0v0h0v0h0v0h0v0h0v0h0v0h0v0h0v0h0v0h0v0h0v0h0v0h0v0h0v0h0v0h0v0h0v0h0v0h0v0h0v0a2.461,2.461,0,0,1-3.94,1.967Z" transform="translate(0 33.33)" fill="#aa7a48"/>
    </g>
  </g>
</svg>
